<?xml version="1.0" standalone="no"?>
<!DOCTYPE svg PUBLIC "-//W3C//DTD SVG 20010904//EN"
 "http://www.w3.org/TR/2001/REC-SVG-20010904/DTD/svg10.dtd">
<svg version="1.0" xmlns="http://www.w3.org/2000/svg"
 width="1002.000000pt" height="1002.000000pt" viewBox="0 0 1002.000000 1002.000000"
 preserveAspectRatio="xMidYMid meet">
<metadata>
Created by potrace 1.14, written by Peter Selinger 2001-2017
</metadata>
<g transform="translate(0.000000,1002.000000) scale(0.100000,-0.100000)"
fill="#000000" stroke="none">
<path d="M2510 9995 c-7 -14 -17 -25 -22 -25 -4 0 -8 -7 -8 -15 0 -8 9 -15 20
-15 17 0 20 -7 20 -48 0 -26 4 -61 9 -79 11 -39 3 -48 -59 -60 -29 -5 -45 -14
-45 -23 0 -21 30 -24 48 -5 17 17 87 21 87 5 0 -5 -6 -10 -13 -10 -7 0 -25 -6
-40 -12 -22 -11 -27 -20 -27 -50 0 -27 -4 -38 -15 -38 -11 0 -15 11 -15 40 0
36 -2 40 -25 40 -14 0 -25 5 -25 11 0 5 -5 7 -11 3 -8 -5 -8 -9 1 -14 8 -5 9
-13 4 -21 -13 -21 -16 -59 -4 -59 5 0 10 -9 10 -21 0 -11 8 -28 17 -37 16 -16
16 -17 0 -20 -9 -2 -17 -8 -17 -14 0 -12 -58 -68 -71 -68 -19 0 -7 -18 28 -43
21 -15 39 -23 41 -17 6 17 34 11 59 -12 20 -18 23 -19 23 -5 0 22 9 21 40 -3
14 -11 35 -20 48 -20 12 0 31 -9 42 -20 12 -12 25 -18 30 -15 6 4 10 -1 10 -9
0 -9 5 -16 11 -16 7 0 10 -20 7 -57 -2 -40 1 -57 10 -61 7 -2 16 5 19 17 7 29
23 27 23 -3 0 -15 7 -26 20 -29 11 -3 20 -10 20 -16 0 -6 -9 -11 -20 -11 -12
0 -20 -7 -20 -16 0 -14 3 -14 15 -4 13 10 18 6 32 -26 9 -22 15 -47 14 -57 -1
-10 2 -24 6 -30 5 -7 16 -32 23 -56 11 -34 12 -45 2 -49 -15 -5 -16 -76 0
-101 6 -10 8 -26 4 -36 -6 -17 -7 -17 -26 0 -20 18 -40 13 -40 -11 0 -8 8 -14
17 -14 13 0 14 -3 5 -12 -9 -9 -18 -9 -37 0 -36 16 -35 17 -35 -28 0 -33 -3
-40 -20 -40 -17 0 -20 -7 -20 -40 0 -33 -3 -40 -20 -40 -11 0 -20 5 -20 10 0
6 5 10 10 10 6 0 10 14 10 30 0 17 -4 30 -10 30 -5 0 -10 -13 -10 -30 0 -27
-3 -30 -30 -30 l-30 0 0 -66 c0 -57 3 -67 19 -71 20 -5 49 -59 38 -70 -4 -3
-13 0 -21 6 -19 16 -29 0 -20 -34 6 -26 29 -34 37 -12 4 10 7 10 18 0 11 -11
10 -13 -5 -13 -10 0 -16 -6 -13 -12 2 -9 22 -12 65 -10 37 2 62 0 62 -6 0 -6
-6 -12 -12 -15 -21 -7 -1 -19 49 -28 26 -5 51 -16 56 -24 4 -8 17 -15 27 -15
11 0 20 -4 20 -10 0 -5 18 -10 40 -10 31 0 40 -4 41 -17 0 -11 3 -13 6 -5 7
17 40 15 47 -4 3 -9 6 -31 6 -50 0 -32 2 -34 33 -34 42 -1 67 -21 67 -54 0
-14 5 -26 10 -26 20 0 9 -40 -16 -56 -18 -12 -22 -19 -13 -25 7 -4 17 -6 23
-5 6 2 8 1 4 -1 -5 -3 -8 -11 -8 -18 0 -7 -12 -16 -27 -20 l-28 -8 25 -6 c52
-14 181 9 256 45 39 19 76 34 83 34 6 0 11 3 11 8 0 4 30 18 66 31 61 22 67
22 82 7 24 -23 7 -45 -59 -78 -176 -87 -250 -119 -297 -130 -41 -9 -60 -20
-79 -45 -14 -18 -29 -30 -34 -27 -5 3 -9 1 -9 -5 0 -16 -61 -81 -76 -81 -8 0
-14 -4 -14 -8 0 -5 -23 -18 -52 -31 -55 -24 -79 -47 -71 -68 8 -20 -26 -53
-54 -53 -13 0 -26 -7 -29 -15 -4 -8 -10 -13 -14 -10 -4 3 -10 -4 -13 -14 -3
-11 -18 -22 -38 -26 -19 -4 -50 -25 -75 -51 -23 -25 -51 -44 -63 -44 -11 0
-21 -4 -21 -10 0 -5 -7 -10 -16 -10 -10 0 -12 5 -7 13 11 19 14 47 4 47 -34 0
-137 -194 -165 -310 -24 -99 -30 -197 -17 -280 14 -88 48 -209 64 -230 7 -8
23 -37 37 -65 14 -27 28 -52 31 -55 3 -3 21 -32 39 -65 18 -33 42 -69 54 -80
12 -12 55 -58 96 -104 74 -83 289 -255 395 -317 75 -43 98 -72 91 -113 -3 -18
-8 -36 -11 -39 -10 -10 -25 21 -25 51 0 34 -22 36 -44 2 -9 -14 -23 -25 -30
-25 -8 0 -16 -7 -20 -15 -4 -11 2 -15 20 -15 24 0 25 -2 19 -40 -4 -26 -3 -40
4 -40 6 0 11 -4 11 -10 0 -5 -6 -10 -14 -10 -14 0 -46 -36 -46 -52 0 -15 32
-8 48 12 17 19 18 19 92 1 63 -16 69 -19 38 -20 -21 -1 -38 -5 -38 -11 0 -5
-9 -10 -20 -10 -13 0 -20 -7 -20 -20 0 -13 7 -20 20 -20 17 0 20 -7 20 -53 0
-50 2 -53 33 -67 17 -7 42 -12 54 -11 13 1 26 -6 32 -18 15 -26 14 -31 -5 -31
-13 0 -14 -3 -4 -14 9 -12 7 -17 -9 -28 -27 -17 -27 -28 2 -28 43 0 51 -15 21
-39 -36 -29 -40 -27 -48 18 -5 31 -13 43 -41 60 -19 11 -35 26 -35 33 0 14
-41 44 -50 37 -3 -2 -5 -15 -6 -29 -1 -60 -5 -80 -14 -80 -5 0 -10 7 -10 15 0
8 -4 15 -10 15 -5 0 -10 -7 -10 -15 0 -8 5 -15 11 -15 5 0 7 -4 4 -10 -3 -5 0
-7 8 -4 20 7 28 -8 30 -56 2 -47 13 -52 22 -10 8 38 25 49 25 16 0 -24 4 -26
40 -26 22 0 40 -4 40 -8 0 -4 -12 -8 -27 -7 -28 0 -28 -1 -25 -57 2 -37 -1
-58 -8 -58 -18 0 -60 31 -60 45 0 18 -30 41 -38 29 -4 -5 -16 -9 -27 -9 -17 0
-19 -5 -16 -35 1 -19 6 -42 11 -50 4 -8 5 -32 3 -52 -4 -28 -10 -38 -23 -38
-14 0 -20 9 -23 33 l-4 32 -1 -36 c-2 -41 -16 -49 -87 -49 -39 0 -89 19 -55
20 8 1 5 5 -8 11 -28 11 -43 4 -36 -15 8 -22 -17 -31 -32 -12 -9 13 -23 16
-55 14 -52 -4 -63 -27 -29 -63 l21 -22 -25 -5 c-19 -4 -27 1 -35 20 -10 20
-16 23 -39 17 -33 -8 -53 -25 -29 -25 9 0 17 -4 17 -10 0 -21 -30 -9 -61 25
-18 18 -36 32 -40 30 -8 -6 0 -45 10 -45 4 0 5 -16 3 -35 -3 -26 -9 -35 -23
-35 -11 0 -22 -7 -25 -15 -7 -16 -39 -20 -48 -6 -3 5 -14 11 -23 13 -13 4 -18
-1 -19 -19 -2 -21 2 -23 47 -23 42 0 49 -3 49 -20 0 -11 -4 -20 -10 -20 -18 0
2 -28 25 -34 12 -3 25 -15 28 -26 3 -11 12 -20 21 -20 13 0 14 -4 7 -18 -7
-13 -2 -25 20 -50 16 -18 29 -28 29 -22 0 5 12 10 26 10 14 0 23 -4 19 -10 -3
-5 3 -10 14 -10 14 0 21 6 21 20 0 13 7 20 20 20 11 0 20 -5 20 -10 0 -15 67
-80 82 -80 9 0 9 -3 -2 -10 -8 -5 -11 -10 -6 -10 5 0 3 -7 -4 -15 -18 -22 -4
-48 21 -42 24 6 71 -12 63 -24 -3 -5 -14 -9 -24 -9 -24 0 -36 -18 -21 -33 16
-16 14 -27 -6 -27 -10 0 -26 -12 -37 -26 -17 -25 -17 -27 -1 -58 14 -26 15
-37 6 -54 -6 -11 -11 -35 -11 -52 0 -26 4 -31 30 -36 17 -4 30 -13 30 -20 0
-16 -36 -19 -45 -4 -11 18 -35 11 -35 -10 0 -12 -12 -32 -26 -45 -22 -20 -24
-27 -14 -45 16 -30 -4 -53 -40 -45 -19 4 -31 0 -45 -15 -21 -24 -35 -26 -35
-5 0 8 -4 15 -9 15 -16 0 -18 -24 -5 -55 9 -20 13 -24 14 -12 0 10 6 17 13 15
20 -7 21 -41 1 -55 -17 -13 -17 -13 0 -26 14 -10 17 -24 15 -60 -3 -39 -1 -47
12 -47 15 0 16 -10 12 -80 -6 -83 -2 -90 35 -71 9 5 25 12 36 15 14 5 17 13
14 37 -4 25 0 33 18 41 18 9 22 16 18 35 -6 20 -3 23 26 23 23 0 33 5 37 20 3
11 13 20 23 20 24 0 52 34 44 54 -3 9 -1 16 5 16 23 0 10 30 -16 35 -16 4 -36
8 -47 10 -10 2 -25 -3 -33 -11 -8 -8 -23 -14 -34 -14 -10 0 -19 -4 -19 -10 0
-5 -7 -10 -15 -10 -9 0 -18 -7 -21 -15 -4 -8 -14 -15 -23 -15 -13 0 -16 10
-16 48 0 46 1 47 22 37 13 -5 23 -13 23 -17 0 -4 7 -5 16 -1 13 5 13 7 2 14
-10 7 -7 14 13 34 23 23 28 25 52 14 15 -7 27 -20 27 -29 0 -25 107 -28 125
-4 11 16 29 18 95 12 14 -1 42 1 63 5 29 6 37 5 37 -7 0 -8 6 -17 13 -19 6 -3
-1 -6 -16 -6 -16 -1 -37 4 -49 10 -24 13 -24 13 -32 -28 l-7 -32 38 11 c21 5
42 14 47 19 6 5 18 9 29 9 10 0 16 3 13 8 -5 9 52 7 77 -3 13 -5 17 -2 17 13
0 11 12 27 26 36 16 11 24 25 22 38 -3 21 -17 27 -68 32 -21 3 -25 8 -25 37 0
25 -4 33 -15 31 -8 -2 -18 -9 -22 -15 -5 -8 -14 -4 -31 11 -13 12 -29 22 -35
22 -14 0 -15 10 -2 30 8 13 13 13 30 2 32 -20 44 -3 17 22 -14 13 -28 32 -31
43 -9 29 23 26 36 -3 6 -13 23 -26 39 -29 28 -6 33 -13 30 -45 -2 -16 52 -62
79 -68 58 -12 93 -13 119 -4 27 10 31 9 31 -7 0 -10 7 -24 15 -31 21 -17 19
-30 -5 -30 -25 0 -26 -16 -2 -22 21 -5 85 16 76 25 -13 13 26 19 41 7 12 -10
21 -10 41 -1 55 25 74 11 74 -55 0 -27 4 -34 19 -34 11 0 23 -4 26 -10 4 -6
-7 -10 -24 -10 -29 0 -31 -2 -31 -40 0 -41 7 -49 28 -28 9 9 13 4 18 -20 4
-18 13 -32 21 -32 8 0 11 -4 8 -10 -3 -5 1 -10 9 -10 10 0 16 -9 16 -24 0 -13
3 -31 6 -40 4 -10 1 -16 -9 -16 -13 0 -27 -19 -26 -38 0 -4 8 -6 18 -4 27 4
68 -75 49 -94 -19 -19 -62 10 -55 37 3 11 1 17 -4 13 -5 -3 -9 -1 -9 4 0 6 -9
8 -20 5 -19 -5 -19 -7 -6 -22 11 -12 14 -28 9 -53 -8 -54 3 -88 30 -89 l22 0
-22 -16 c-29 -19 -29 -38 -2 -56 11 -8 16 -18 11 -21 -6 -3 -9 -21 -8 -39 l3
-33 -46 6 c-44 5 -46 7 -49 38 -3 29 -6 33 -25 28 -12 -3 -28 -6 -34 -6 -19 0
-16 -21 4 -35 10 -7 18 -24 18 -37 0 -17 5 -22 20 -21 32 4 65 -6 65 -21 0 -7
-9 -21 -20 -31 -15 -13 -20 -15 -20 -4 0 10 -5 9 -18 -4 -14 -15 -15 -19 -2
-27 8 -5 19 -6 24 -2 6 3 -6 -15 -27 -40 -27 -33 -47 -48 -73 -53 -26 -4 -34
-10 -30 -21 3 -9 -5 -26 -20 -41 -14 -14 -23 -31 -20 -39 3 -8 -1 -14 -8 -14
-18 0 -49 -37 -42 -49 4 -6 2 -19 -3 -29 -7 -14 -18 -18 -40 -14 -22 3 -32 -1
-41 -17 -6 -12 -15 -19 -20 -16 -5 3 -16 -7 -24 -23 -23 -45 -82 -58 -118 -26
-10 9 -39 19 -65 21 -32 3 -51 10 -60 23 -20 29 -30 25 -38 -16 -8 -48 -33
-84 -55 -84 -10 0 -20 -9 -23 -20 -3 -11 -11 -19 -18 -18 -8 2 -15 -7 -17 -20
-3 -18 -6 -21 -17 -12 -9 8 -15 8 -20 0 -3 -5 -14 -10 -25 -10 -10 0 -32 -13
-49 -29 -22 -20 -37 -27 -56 -24 -18 4 -25 1 -25 -11 0 -9 -7 -16 -15 -16 -14
0 -21 -29 -16 -67 4 -35 -85 -23 -101 13 -6 13 -20 24 -30 24 -10 0 -21 7 -24
15 -4 8 -13 15 -21 15 -13 0 -13 3 -3 15 10 12 10 19 2 27 -8 8 -6 18 8 36 11
14 20 33 20 43 0 12 7 19 19 19 40 0 51 11 51 50 0 29 6 41 25 54 27 18 34 56
11 56 -7 0 -19 -14 -26 -31 l-13 -31 -14 26 c-11 21 -21 26 -52 26 -22 0 -44
-6 -51 -15 -21 -25 -40 -18 -40 15 0 25 4 30 25 30 31 0 67 34 59 55 -5 12
-10 13 -20 4 -23 -19 -64 -2 -64 25 0 16 -7 25 -22 29 -13 2 -31 8 -40 12 -13
5 -18 3 -18 -8 0 -8 14 -18 33 -22 20 -4 27 -9 17 -13 -8 -3 -20 -12 -26 -20
-8 -12 -15 -12 -32 -3 -21 11 -21 13 -7 48 8 19 15 37 15 39 0 6 54 5 90 -2
17 -4 34 -14 38 -23 13 -34 62 -55 62 -26 0 8 -7 15 -15 15 -8 0 -15 7 -15 15
0 8 -7 15 -15 15 -8 0 -15 3 -15 6 0 3 7 12 15 20 8 9 15 24 15 34 0 10 5 22
10 25 8 5 7 11 0 20 -20 24 -60 -2 -60 -38 0 -22 -4 -28 -15 -23 -9 3 -15 0
-15 -9 0 -8 -7 -15 -15 -15 -11 0 -15 11 -15 40 0 22 -4 40 -10 40 -5 0 -10 8
-10 18 1 16 1 16 11 0 12 -22 39 -24 39 -3 0 10 10 15 30 15 16 0 52 5 81 11
51 11 52 12 32 28 -11 9 -23 28 -27 44 -5 23 -11 27 -41 27 -18 0 -37 5 -40
10 -3 6 -1 10 4 10 6 0 11 11 11 25 0 15 6 25 14 25 21 0 28 17 17 38 -8 15
-4 22 20 36 17 10 39 16 49 13 22 -6 30 10 30 59 0 19 7 46 16 59 25 38 6 60
-53 60 l-48 0 0 51 c1 44 -3 52 -23 62 -23 11 -23 10 -17 -31 4 -23 11 -44 16
-45 5 -2 9 -11 9 -19 0 -9 -6 -13 -14 -10 -8 3 -22 0 -32 -7 -15 -11 -16 -19
-8 -47 15 -53 -25 -120 -41 -69 -9 28 -21 25 -35 -10 -9 -22 -19 -30 -39 -31
-25 0 -25 -1 -5 -9 12 -5 25 -13 28 -19 4 -7 1 -8 -8 -5 -26 10 -54 -13 -49
-40 4 -17 -1 -28 -16 -38 -12 -7 -21 -21 -21 -32 0 -16 5 -17 36 -11 40 7 71
19 96 37 20 15 37 3 20 -14 -17 -17 -15 -31 4 -24 8 3 12 2 9 -4 -3 -5 -25 -7
-50 -3 -31 4 -45 2 -45 -6 0 -6 9 -11 20 -11 26 0 25 -10 -4 -37 -28 -27 -35
-28 -50 -9 -9 13 -16 12 -49 -2 -24 -11 -35 -22 -32 -31 3 -8 -1 -21 -9 -30
-10 -12 -12 -28 -6 -61 7 -44 7 -45 15 -15 4 17 16 42 26 56 10 14 16 29 13
32 -3 3 -2 12 2 19 6 9 11 -2 15 -32 3 -25 2 -46 -2 -48 -5 -2 -9 -16 -9 -30
0 -39 -14 -55 -39 -47 -12 3 -21 2 -21 -4 0 -5 -3 -17 -7 -27 -5 -14 -2 -16
20 -10 20 5 27 3 27 -9 0 -8 5 -15 10 -15 22 0 8 -30 -20 -45 -39 -20 -100
-20 -100 0 0 8 -6 15 -14 15 -8 0 -16 4 -18 9 -4 12 -58 2 -58 -10 0 -5 9 -9
20 -9 31 0 24 -17 -10 -23 -27 -6 -30 -11 -30 -42 0 -40 -18 -53 -53 -38 -18
8 -24 6 -32 -11 -7 -15 -22 -22 -48 -24 -21 -2 -37 1 -37 7 0 6 7 11 15 11 21
0 19 12 -5 33 -11 9 -20 22 -20 29 0 19 16 40 26 36 5 -1 16 12 24 29 8 18 21
33 28 33 15 0 16 12 0 28 -18 18 -38 14 -38 -8 0 -27 -14 -25 -34 5 -25 38
-46 32 -46 -12 -1 -52 -19 -73 -64 -73 -20 0 -37 -4 -37 -10 -1 -5 -2 -20 -3
-32 -1 -20 -7 -23 -41 -24 -47 0 -95 -22 -75 -34 8 -5 9 -10 2 -14 -6 -3 -13
-2 -17 4 -13 22 -25 8 -25 -30 0 -27 4 -40 14 -40 8 0 16 -16 20 -39 3 -22 11
-41 18 -43 7 -3 9 -12 5 -22 -4 -9 -12 -14 -17 -11 -6 4 -17 2 -24 -4 -19 -16
-45 14 -28 31 7 7 12 22 12 34 0 18 -7 23 -40 29 -37 6 -40 9 -40 40 0 18 -3
40 -6 49 -3 9 -1 16 5 16 6 0 11 -17 11 -40 0 -34 3 -40 21 -40 20 0 21 4 17
49 -5 49 4 81 22 81 6 0 10 -8 10 -17 1 -14 5 -12 20 9 15 18 26 24 41 21 17
-5 20 -2 17 13 -2 13 -11 19 -28 18 -14 -1 -49 2 -79 7 -63 10 -80 -3 -81 -58
0 -17 -5 -35 -11 -38 -7 -5 -5 -13 6 -25 15 -16 15 -19 -1 -34 -19 -20 -22
-18 -34 23 -5 19 -5 31 1 31 6 0 6 7 -1 19 -5 11 -10 29 -10 40 0 12 -4 21
-10 21 -5 0 -10 -18 -10 -40 0 -22 -4 -40 -9 -40 -5 0 -7 -9 -4 -20 6 -23 -12
-50 -33 -50 -8 0 -14 7 -14 15 0 21 -18 19 -32 -5 -7 -11 -19 -20 -27 -20 -12
0 -12 -3 -3 -12 10 -10 17 -10 33 0 18 11 24 11 40 -4 10 -9 19 -25 19 -35 0
-31 12 -49 31 -49 10 0 19 -7 19 -15 0 -12 -7 -14 -27 -9 -45 11 -62 23 -78
54 -13 24 -22 30 -48 29 -17 0 -26 -3 -19 -6 6 -2 12 -15 12 -28 0 -17 -7 -24
-29 -28 -32 -7 -46 -30 -27 -46 10 -8 20 -5 40 14 27 25 39 10 13 -17 -7 -7
-18 -26 -25 -42 -12 -27 -14 -27 -30 -12 -14 12 -21 13 -30 4 -7 -7 -12 -17
-12 -23 0 -7 -12 -17 -27 -24 -16 -8 -35 -17 -43 -21 -8 -4 -16 -17 -18 -29
-2 -11 -8 -21 -14 -21 -6 0 -7 15 -3 40 4 24 3 40 -3 40 -5 0 -12 9 -15 20 -4
17 -9 18 -36 9 -29 -10 -36 -20 -32 -43 1 -4 -4 -14 -10 -22 -9 -11 -9 -17 1
-29 6 -8 9 -23 5 -35 -4 -14 -1 -28 11 -41 16 -18 16 -19 -7 -19 -33 0 -53
-33 -37 -60 7 -11 20 -20 28 -20 21 -1 -50 -59 -72 -60 -10 0 -18 5 -18 10 0
6 -7 10 -15 10 -7 0 -18 7 -23 16 -7 13 -13 14 -30 5 -22 -12 -67 -6 -88 11
-8 6 -13 -3 -16 -32 -4 -42 6 -49 42 -30 10 5 32 7 49 4 31 -6 31 -7 11 -24
-20 -17 -20 -17 0 -35 13 -11 25 -15 37 -10 10 5 41 11 68 14 35 4 50 10 50
21 0 10 12 16 38 18 28 2 37 -1 37 -12 0 -8 -5 -18 -11 -22 -6 -3 -8 -17 -5
-30 9 -34 -10 -67 -34 -59 -13 4 -20 -1 -26 -17 -6 -21 -8 -21 -13 -5 -6 17
-8 17 -26 -3 l-18 -20 -24 21 c-21 20 -25 21 -50 9 -27 -13 -27 -14 -6 -18 17
-2 23 -10 23 -28 0 -33 28 -63 40 -43 14 22 22 4 11 -24 -16 -42 -43 -67 -74
-67 -28 0 -117 -55 -117 -72 0 -24 -31 -2 -54 37 -27 45 -41 59 -29 29 5 -13
2 -15 -18 -9 -13 5 -40 9 -59 9 -19 1 -35 7 -35 13 0 6 -3 15 -7 19 -5 4 -8
20 -8 34 0 15 -7 33 -15 40 -12 10 -15 10 -15 -2 0 -16 -36 -37 -62 -36 -10 1
-18 9 -18 18 0 13 -11 19 -42 23 -39 5 -69 -5 -66 -21 2 -23 -5 -32 -26 -32
-13 0 -26 -5 -28 -11 -4 -13 -78 -30 -78 -18 0 5 -7 9 -15 9 -18 0 -20 -16 -2
-23 6 -3 2 -6 -10 -6 -13 -1 -23 4 -23 9 0 6 -6 10 -14 10 -19 0 -28 26 -21
64 3 17 0 64 -8 104 -13 67 -13 75 4 95 9 13 19 36 21 52 1 16 9 31 17 33 11
4 13 -2 8 -25 -4 -19 -1 -38 8 -49 13 -18 14 -18 33 -1 14 12 21 34 24 66 3
45 1 49 -25 61 -26 11 -27 13 -10 26 10 7 26 14 36 14 9 0 17 5 17 10 0 6 9
10 20 10 24 0 26 17 4 41 -22 25 -11 51 19 44 12 -3 34 -2 47 4 23 9 22 10
-12 10 -21 1 -38 5 -38 9 0 4 16 6 36 4 21 -3 39 0 44 7 5 9 10 8 20 -3 10
-13 9 -17 -4 -22 -13 -5 -13 -8 -1 -20 16 -16 35 -18 35 -4 0 6 9 10 19 10 24
0 71 41 71 61 0 27 -17 41 -39 34 -12 -3 -19 -10 -16 -15 3 -4 -39 -6 -92 -3
-83 3 -102 8 -121 26 -18 17 -25 19 -31 8 -5 -7 -21 -11 -37 -9 -24 2 -29 8
-29 29 0 26 -29 69 -47 69 -4 0 -8 -9 -8 -20 0 -21 -27 -40 -47 -33 -10 4 -9
10 2 26 22 31 19 62 -5 64 -11 1 -27 9 -36 17 -8 9 -20 16 -25 16 -6 0 -9
-485 -9 -1265 l0 -1265 4024 0 c3210 0 4025 3 4029 13 4 9 6 9 6 0 1 -10 204
-13 981 -13 l980 0 0 5010 0 5010 -3748 0 -3749 0 -13 -25z m701 -55 c24 0 5
-18 -23 -22 -18 -3 -41 -8 -50 -13 -14 -6 -18 -2 -18 18 0 20 4 23 23 20 19
-4 27 2 38 29 l14 33 3 -32 c2 -18 7 -33 13 -33z m-103 -52 c14 -14 16 -48 3
-48 -22 0 -41 13 -41 29 0 31 18 39 38 19z m92 -38 c0 -32 -1 -33 -24 -24 -19
7 -21 40 -3 47 23 10 27 7 27 -23z m-355 -61 c5 -5 -2 -9 -18 -9 -29 0 -35
-16 -18 -48 6 -9 12 -29 16 -44 7 -34 30 -37 40 -5 8 21 8 21 12 -5 2 -16 11
-28 19 -28 18 0 18 -24 -1 -40 -8 -7 -15 -24 -15 -37 0 -21 -2 -23 -15 -13
-12 10 -16 9 -21 -4 -3 -9 -15 -16 -25 -16 -11 0 -29 -5 -42 -12 -12 -6 -29
-14 -37 -18 -8 -4 -15 -16 -16 -26 -1 -11 -2 -24 -3 -29 0 -6 -19 -21 -41 -35
-22 -14 -40 -30 -40 -37 0 -15 -9 -16 -29 -4 -10 7 -8 12 10 24 l22 16 -24 20
-24 20 23 1 c19 0 22 5 22 40 0 22 5 40 11 40 6 0 9 18 8 48 -3 43 -1 49 28
67 31 19 44 45 23 45 -5 0 -10 18 -10 39 0 22 5 43 10 46 6 3 10 -1 10 -10 0
-9 6 -15 13 -12 6 2 11 14 9 26 -3 21 -1 22 45 16 26 -4 52 -11 58 -16z m100
1 c4 -6 -5 -10 -19 -10 -14 0 -26 5 -26 10 0 6 9 10 19 10 11 0 23 -4 26 -10z
m95 -25 c0 -8 7 -15 16 -15 27 0 9 -25 -19 -25 -14 -1 -29 -4 -33 -8 -4 -4
-13 -2 -21 5 -11 9 -10 15 8 35 25 26 49 30 49 8z m-116 -1 c9 -3 16 -14 16
-24 0 -20 -23 -32 -45 -24 -18 7 -20 40 -2 47 6 3 13 6 14 6 1 1 8 -2 17 -5z
m36 -79 c0 -8 -7 -15 -15 -15 -8 0 -15 7 -15 15 0 8 7 15 15 15 8 0 15 -7 15
-15z m-370 -74 c0 -5 -7 -14 -15 -21 -13 -10 -15 -9 -15 9 0 12 6 21 15 21 8
0 15 -4 15 -9z m196 -916 c16 -13 17 -16 4 -25 -8 -5 -23 -10 -32 -10 -14 0
-18 -9 -18 -40 0 -22 -2 -40 -4 -40 -2 0 -11 -3 -20 -6 -13 -5 -16 2 -16 40 0
25 5 46 10 46 6 0 10 8 10 18 0 35 32 43 66 17z m-126 -189 c0 -3 -4 -8 -10
-11 -5 -3 -10 -1 -10 4 0 6 5 11 10 11 6 0 10 -2 10 -4z m418 -373 c18 -4 20
-8 10 -14 -21 -14 -48 -10 -48 6 0 17 4 18 38 8z m1942 -1107 c35 -10 47 -20
55 -42 12 -34 44 -70 46 -51 1 6 3 22 4 35 1 13 10 31 19 40 14 14 19 14 34 4
9 -7 29 -18 43 -24 14 -6 33 -25 43 -42 18 -31 18 -31 27 -8 5 12 16 22 25 22
10 0 14 5 10 15 -6 16 26 55 44 55 6 0 15 -11 21 -23 6 -13 23 -31 39 -40 33
-20 47 -75 24 -93 -21 -17 -17 -32 14 -59 l27 -24 -27 -1 c-14 0 -28 -3 -30
-7 -4 -10 -55 -46 -94 -66 -20 -10 -39 -34 -55 -66 -13 -28 -26 -51 -30 -51
-10 0 -44 42 -78 98 -18 28 -35 52 -38 52 -2 0 -2 -13 2 -29 4 -18 0 -44 -10
-67 -13 -32 -15 -62 -11 -164 4 -88 10 -126 19 -132 18 -9 22 -260 6 -291 -7
-11 -11 -49 -10 -83 1 -34 -3 -65 -7 -68 -5 -3 -4 -39 1 -82 9 -78 7 -88 -54
-414 -6 -30 -17 -68 -24 -85 -29 -65 -46 -136 -40 -165 4 -17 31 -53 66 -87
62 -61 71 -83 41 -105 -10 -7 -22 -20 -27 -28 -14 -22 -25 -106 -26 -187 0
-59 4 -79 21 -103 37 -53 94 -35 110 35 12 51 13 151 1 173 -4 9 -11 36 -15
59 -5 38 -3 44 19 59 31 20 65 9 89 -29 21 -32 66 -216 66 -271 0 -40 -3 -46
-30 -58 -17 -7 -33 -21 -36 -31 -12 -39 -78 -56 -173 -46 -60 7 -80 5 -105 -8
-42 -21 -147 -96 -142 -100 8 -8 215 -24 296 -23 84 1 186 -16 196 -32 9 -14
-6 -48 -21 -48 -8 0 -30 -11 -49 -24 -19 -13 -55 -27 -78 -30 -53 -8 -173 -69
-173 -87 0 -8 13 -15 28 -17 27 -3 28 -5 26 -53 -2 -45 1 -53 27 -75 21 -17
39 -23 66 -22 21 1 43 -3 49 -9 7 -7 22 -8 46 -1 19 5 41 7 49 4 7 -3 29 1 48
9 48 20 83 19 112 -4 19 -15 21 -20 10 -24 -33 -13 -79 -158 -57 -180 14 -14
15 -47 1 -47 -5 0 -10 -6 -10 -14 0 -8 -7 -16 -15 -20 -8 -3 -15 -13 -15 -21
0 -12 -8 -16 -28 -14 -15 2 -32 0 -38 -3 -14 -9 -11 -48 5 -57 9 -6 5 -10 -13
-15 -17 -4 -26 -13 -26 -25 0 -11 -6 -26 -12 -33 -7 -8 -18 -23 -24 -33 -6
-11 -29 -29 -52 -40 -48 -24 -71 -50 -72 -82 0 -14 -6 -23 -15 -23 -8 0 -15
-6 -15 -13 0 -7 -9 -18 -20 -25 -11 -7 -20 -16 -20 -22 0 -20 112 -35 340 -47
52 -2 102 -5 110 -5 8 -1 78 18 155 41 136 42 248 89 330 140 22 13 67 38 100
55 33 16 62 33 65 37 3 4 24 17 48 29 23 12 42 27 42 33 0 6 3 8 6 5 3 -4 14
1 24 10 9 9 46 35 81 57 35 21 69 43 74 48 76 65 364 244 670 417 48 27 136
79 189 111 27 16 51 27 54 24 3 -3 -19 -30 -49 -59 -64 -64 -79 -82 -79 -96 0
-6 -8 -14 -17 -17 -19 -8 -103 -93 -103 -105 0 -4 -7 -8 -15 -8 -8 0 -15 -5
-15 -11 0 -16 -44 -55 -120 -107 -36 -25 -69 -51 -73 -58 -4 -8 -14 -14 -21
-14 -7 0 -26 -12 -43 -27 -16 -16 -36 -29 -44 -31 -8 -2 -20 -12 -28 -22 -7
-11 -20 -20 -27 -20 -8 0 -14 -7 -14 -15 0 -9 -9 -15 -21 -15 -12 0 -23 -8
-26 -20 -3 -11 -11 -20 -17 -20 -17 0 -86 -63 -86 -78 0 -6 -7 -12 -16 -12 -8
0 -20 -13 -25 -29 -6 -18 -22 -34 -40 -41 -19 -8 -28 -18 -25 -26 3 -8 -5 -21
-18 -30 -14 -8 -32 -31 -41 -50 -9 -18 -26 -45 -38 -58 -12 -13 -35 -40 -52
-60 -16 -21 -42 -49 -57 -63 -16 -15 -28 -30 -28 -35 0 -5 -26 -48 -57 -96
-32 -48 -58 -91 -58 -97 0 -5 -7 -11 -16 -13 -16 -3 -69 66 -69 90 0 7 -11 25
-24 41 -17 20 -32 27 -60 27 -26 0 -42 7 -58 26 -21 24 -27 25 -88 19 -96 -9
-188 -33 -250 -66 -30 -15 -68 -33 -85 -40 -232 -88 -210 -84 -241 -44 -31 42
-44 46 -89 34 -25 -7 -45 -7 -70 2 -34 13 -36 12 -69 -24 -38 -42 -54 -44
-111 -18 -22 10 -51 21 -65 24 -14 4 -38 17 -54 30 l-30 24 23 59 c19 53 22
75 19 191 -4 128 -4 131 -33 165 -17 20 -41 42 -55 51 -14 9 -54 41 -89 72
-60 53 -64 55 -82 39 -18 -16 -19 -16 -19 4 0 12 5 22 10 22 17 0 11 14 -20
47 -17 18 -30 38 -30 46 0 19 -46 78 -54 69 -4 -4 -7 -2 -5 3 4 16 -21 68 -43
92 -24 25 -24 26 -98 170 -30 60 -61 114 -67 121 -7 7 -16 25 -19 40 -7 28
-40 105 -75 177 -15 32 -19 35 -16 14 4 -25 2 -26 -30 -19 -24 6 -38 4 -48 -7
-13 -13 -15 -10 -15 24 0 25 3 33 9 25 7 -12 12 -12 30 -1 11 8 21 18 21 23 0
4 7 3 15 -4 21 -17 30 -6 10 13 -8 9 -15 21 -15 28 0 36 -26 119 -37 119 -7 0
-13 5 -13 10 0 6 -7 10 -15 10 -8 0 -15 4 -15 9 0 4 -18 11 -40 14 -54 7 -112
69 -136 146 -9 31 -22 59 -27 63 -13 8 -17 130 -4 146 6 8 6 12 -2 12 -6 0
-11 -4 -11 -10 0 -5 -17 -10 -39 -10 -23 0 -48 -8 -64 -20 -30 -24 -41 -25
-33 -5 3 10 -7 30 -26 50 -34 38 -58 42 -137 24 -54 -12 -79 -6 -61 16 10 13
8 15 -14 15 -24 0 -26 4 -26 40 0 33 3 40 20 40 13 0 20 7 20 20 0 15 -7 20
-24 20 -14 0 -28 4 -31 10 -6 10 43 90 55 90 8 0 40 -44 40 -55 0 -3 -9 -5
-20 -5 -13 0 -20 -7 -20 -20 0 -13 7 -20 20 -20 11 0 20 -7 20 -15 0 -8 6 -15
13 -16 10 0 10 -2 0 -6 -8 -2 -13 -22 -13 -44 0 -24 -5 -39 -12 -39 -9 -1 -8
-4 2 -10 16 -9 90 9 90 22 0 13 78 9 83 -4 2 -7 7 -10 11 -6 4 3 3 16 -4 27
-8 16 -20 21 -50 21 -29 0 -40 4 -40 15 0 8 -8 15 -17 15 -13 0 -14 3 -5 12 9
9 18 9 37 0 42 -19 71 -15 83 13 12 27 7 55 -11 55 -6 0 0 11 13 25 15 16 30
23 41 20 22 -7 28 4 18 35 -4 14 -7 20 -8 14 -1 -15 -70 17 -71 32 0 7 7 15
16 18 8 3 12 11 8 17 -4 6 -10 27 -14 45 -7 30 -5 34 12 34 10 0 16 5 13 10
-4 7 -12 7 -25 0 -25 -14 -27 -13 -33 10 -3 11 -12 22 -21 25 -23 7 -37 14
-76 36 l-35 20 56 -5 c67 -6 89 -14 89 -31 0 -7 7 -18 15 -25 13 -11 14 -10 9
4 -7 18 6 22 22 6 17 -17 44 0 44 26 0 14 -9 50 -20 81 -22 64 -24 73 -12 73
5 0 26 -34 47 -75 22 -41 42 -75 47 -75 12 0 21 47 14 75 -7 28 -112 145 -131
145 -6 0 -20 18 -30 40 -17 37 -17 41 -1 65 10 14 24 29 32 32 17 6 108 -33
126 -54 6 -7 15 -13 21 -13 15 0 2 129 -18 176 -23 54 -50 242 -50 344 0 94 8
117 81 230 112 173 154 210 324 292 68 33 107 44 194 56 101 15 109 15 121 -1
15 -21 35 -22 35 -2 0 8 5 15 10 15 6 0 10 -6 10 -13 0 -14 46 -15 115 -4 34
6 50 1 110 -31 50 -27 71 -45 73 -61 3 -16 8 -20 23 -16 11 4 19 2 19 -4 0 -6
6 -11 13 -11 9 0 14 12 15 32 0 18 8 38 16 44 9 6 16 18 16 26 0 26 39 52 85
57 6 0 30 -5 55 -13z m867 -662 c7 -20 -53 -73 -84 -74 -50 -1 -37 45 21 70
51 23 55 23 63 4z m-2512 -724 c3 -5 1 -10 -4 -10 -6 0 -11 5 -11 10 0 6 2 10
4 10 3 0 8 -4 11 -10z m-15 -30 c0 -5 -2 -10 -4 -10 -3 0 -8 5 -11 10 -3 6 -1
10 4 10 6 0 11 -4 11 -10z m-66 -85 c-4 -8 -8 -15 -10 -15 -2 0 -4 7 -4 15 0
8 4 15 10 15 5 0 7 -7 4 -15z m73 -57 c-3 -8 -6 -5 -6 6 -1 11 2 17 5 13 3 -3
4 -12 1 -19z m93 -44 c0 -16 -33 -34 -64 -34 -29 0 -36 4 -36 20 0 17 7 20 50
20 28 0 50 -3 50 -6z m51 -81 l-4 -48 -10 32 c-10 32 -5 63 10 63 5 0 6 -21 4
-47z m59 -33 c-43 -30 -50 -31 -50 -10 0 16 6 20 33 20 25 0 29 -3 17 -10z
m-241 -189 c17 -11 7 -41 -14 -41 -9 0 -15 9 -15 25 0 27 6 30 29 16z m187
-68 c-2 -12 -12 -18 -31 -18 -32 0 -46 21 -18 28 38 10 51 7 49 -10z m79 -32
c10 -17 -31 -33 -44 -17 -6 7 -8 16 -4 19 10 10 41 8 48 -2z m105 -59 c0 -30
-12 -33 -31 -10 -24 27 -24 28 6 28 18 0 25 -5 25 -18z m-120 -28 c0 -8 -9
-14 -20 -14 -22 0 -26 10 -8 28 13 13 28 7 28 -14z m180 16 c0 -5 -5 -10 -11
-10 -5 0 -7 5 -4 10 3 6 8 10 11 10 2 0 4 -4 4 -10z m-457 -17 c-7 -2 -19 -2
-25 0 -7 3 -2 5 12 5 14 0 19 -2 13 -5z m347 -23 c0 -5 -4 -10 -10 -10 -5 0
-10 5 -10 10 0 6 5 10 10 10 6 0 10 -4 10 -10z m140 -45 c0 -8 -4 -15 -10 -15
-5 0 -10 7 -10 15 0 8 5 15 10 15 6 0 10 -7 10 -15z m-50 -25 c-12 -11 -27
-17 -32 -14 -6 4 -5 10 3 15 8 5 10 9 4 10 -5 0 1 4 15 8 34 10 37 5 10 -19z
m-940 -46 c0 -17 -22 -14 -28 4 -2 7 3 12 12 12 9 0 16 -7 16 -16z m244 -119
c3 -9 0 -15 -8 -15 -8 0 -16 7 -20 15 -3 9 0 15 8 15 8 0 16 -7 20 -15z m986
-62 c0 -14 -19 -38 -25 -32 -8 8 5 39 16 39 5 0 9 -3 9 -7z m-1135 -23 c3 -5
1 -10 -4 -10 -6 0 -11 5 -11 10 0 6 2 10 4 10 3 0 8 -4 11 -10z m1068 -69 c4
0 7 -5 7 -11 0 -5 -16 -10 -35 -10 -30 0 -35 -4 -35 -22 -1 -21 -1 -22 -11 -5
-8 14 -7 23 5 36 14 16 31 19 69 12z m-1003 -11 c0 -5 -12 -10 -27 -10 -22 0
-25 2 -13 10 20 13 40 13 40 0z m49 -39 c9 -6 11 -15 6 -27 -5 -11 -7 -26 -6
-34 1 -11 -3 -10 -14 4 -15 20 -21 66 -7 66 4 0 13 -4 21 -9z m128 -35 c-8
-21 -48 -22 -42 -1 17 52 14 50 32 33 9 -9 13 -24 10 -32z m-245 -28 c-7 -7
-12 -8 -12 -2 0 6 3 14 7 17 3 4 9 5 12 2 2 -3 -1 -11 -7 -17z m515 16 c-3 -3
-12 -4 -19 -1 -8 3 -5 6 6 6 11 1 17 -2 13 -5z m-331 -71 c7 -7 24 -13 38 -13
29 0 33 -14 12 -36 -19 -18 -23 -18 -53 6 -36 28 -54 65 -40 79 8 8 14 6 21
-6 5 -10 15 -24 22 -30z m939 38 c3 -5 1 -12 -4 -15 -5 -3 -11 1 -15 9 -6 16
9 21 19 6z m-195 -32 c0 -5 -7 -9 -15 -9 -15 0 -20 12 -9 23 8 8 24 -1 24 -14z
m-540 -58 c0 -13 -37 -24 -50 -16 -6 4 -8 11 -5 16 8 12 55 12 55 0z m-170
-50 c0 -17 -18 -21 -24 -6 -3 9 0 15 9 15 8 0 15 -4 15 -9z m96 -36 c-3 -9
-10 -13 -16 -10 -6 4 -5 11 3 20 15 16 22 11 13 -10z m-172 -14 c-22 -21 -27
-21 -18 3 3 9 13 16 22 16 13 0 12 -3 -4 -19z m66 9 c0 -5 -4 -10 -10 -10 -5
0 -10 5 -10 10 0 6 5 10 10 10 6 0 10 -4 10 -10z m24 -45 c3 -9 -1 -18 -10
-22 -19 -7 -26 0 -18 21 8 20 20 21 28 1z m-194 -75 c0 -5 -4 -10 -9 -10 -6 0
-13 5 -16 10 -3 6 1 10 9 10 9 0 16 -4 16 -10z m45 -100 c9 -28 -12 -60 -38
-59 -21 0 -21 1 -2 9 11 5 14 9 8 9 -16 1 -17 33 -1 49 17 17 26 15 33 -8z
m145 -10 c0 -5 -5 -10 -11 -10 -5 0 -7 5 -4 10 3 6 8 10 11 10 2 0 4 -4 4 -10z
m480 0 c0 -5 -4 -10 -10 -10 -5 0 -10 5 -10 10 0 6 5 10 10 10 6 0 10 -4 10
-10z m-723 -36 c-3 -3 -12 -4 -19 -1 -8 3 -5 6 6 6 11 1 17 -2 13 -5z m138
-13 c-3 -6 -14 -11 -23 -11 -15 1 -15 2 2 15 21 16 32 13 21 -4z m245 -16 c10
-12 10 -18 0 -30 -7 -8 -16 -15 -20 -15 -12 0 -20 28 -14 45 4 8 10 15 14 15
4 0 13 -7 20 -15z m-193 -29 c-6 -17 -31 -13 -35 6 -2 12 2 15 18 11 11 -3 19
-11 17 -17z m-237 -16 c0 -5 -5 -12 -11 -16 -14 -8 -33 11 -25 25 7 11 36 4
36 -9z m175 -20 c-3 -5 -10 -10 -16 -10 -5 0 -9 5 -9 10 0 6 7 10 16 10 8 0
12 -4 9 -10z m832 -116 c-3 -3 -12 -4 -19 -1 -8 3 -5 6 6 6 11 1 17 -2 13 -5z
m1560 -66 c-3 -8 -6 -5 -6 6 -1 11 2 17 5 13 3 -3 4 -12 1 -19z m-937 3 c0 -5
3 -16 6 -25 4 -10 1 -16 -9 -16 -15 0 -30 34 -19 44 8 9 22 7 22 -3z m-1632
-13 c-6 -18 -28 -21 -28 -4 0 9 7 16 16 16 9 0 14 -5 12 -12z m-238 -419 c0
-4 -9 -9 -20 -12 -17 -4 -20 0 -20 24 0 28 1 28 20 12 11 -10 20 -20 20 -24z
m1309 -20 c-9 -5 -15 -4 -18 2 -2 6 3 15 10 20 9 5 15 4 18 -2 2 -6 -3 -15
-10 -20z m-48 -122 c-1 -12 -15 -9 -19 4 -3 6 1 10 8 8 6 -3 11 -8 11 -12z
m-1242 -41 c-12 -10 -49 -16 -49 -7 0 16 34 31 44 21 5 -6 8 -11 5 -14z m-99
-16 c0 -11 -7 -20 -15 -20 -8 0 -15 9 -15 20 0 11 7 20 15 20 8 0 15 -9 15
-20z m-33 -122 c-3 -7 -5 -2 -5 12 0 14 2 19 5 13 2 -7 2 -19 0 -25z m22 -154
c41 -20 57 -53 42 -83 -11 -20 -9 -21 24 -21 34 0 35 -1 35 -39 0 -25 5 -41
15 -45 8 -3 15 -12 15 -21 0 -15 -39 -21 -98 -16 -16 1 -25 -6 -32 -24 -12
-33 -19 -32 -31 5 -12 32 -20 36 -49 20 -14 -8 -19 -5 -23 11 -3 11 -15 23
-26 26 -15 4 -21 13 -21 33 0 15 -7 33 -15 40 -12 10 -18 8 -33 -10 -21 -25
-42 -20 -42 10 0 23 46 56 73 52 12 -2 20 4 24 17 3 12 14 21 24 21 11 0 19 6
19 14 0 13 16 20 56 25 6 0 25 -6 43 -15z m-226 -31 c-7 -2 -19 -2 -25 0 -7 3
-2 5 12 5 14 0 19 -2 13 -5z m5357 -3 c0 -5 -5 -10 -11 -10 -5 0 -7 5 -4 10 3
6 8 10 11 10 2 0 4 -4 4 -10z m-6023 -42 c-3 -8 -6 -5 -6 6 -1 11 2 17 5 13 3
-3 4 -12 1 -19z m343 -8 c0 -11 0 -23 1 -27 0 -5 -7 -9 -15 -11 -11 -2 -16 4
-16 21 0 13 3 27 7 30 12 13 23 7 23 -13z m-110 -60 c0 -11 -7 -20 -15 -20 -8
0 -15 9 -15 20 0 11 7 20 15 20 8 0 15 -9 15 -20z m5510 -14 c0 -3 -4 -8 -10
-11 -5 -3 -10 -1 -10 4 0 6 5 11 10 11 6 0 10 -2 10 -4z m-5275 -16 c3 -5 -3
-10 -15 -10 -12 0 -18 5 -15 10 3 6 10 10 15 10 5 0 12 -4 15 -10z m90 -21
c11 -16 1 -19 -13 -3 -7 8 -8 14 -3 14 5 0 13 -5 16 -11z m3642 -41 c-3 -7 -5
-2 -5 12 0 14 2 19 5 13 2 -7 2 -19 0 -25z m-3987 -14 c0 -9 -11 -14 -30 -14
-20 0 -30 5 -30 15 0 8 6 12 14 9 8 -3 17 0 21 5 8 14 25 4 25 -15z m-184 -5
c3 -5 0 -9 -5 -9 -6 0 -11 -8 -11 -19 0 -10 -6 -24 -14 -30 -18 -15 -46 -3
-46 19 0 10 -2 25 -6 33 -4 11 4 14 36 14 22 0 43 -4 46 -8z m676 -22 c-3 -12
-11 -31 -19 -43 -7 -11 -10 -23 -7 -27 4 -3 3 -22 0 -42 -5 -27 -12 -35 -28
-35 -15 0 -19 5 -15 19 5 21 -28 37 -39 19 -10 -15 -44 23 -44 49 0 12 3 22 8
22 21 -4 33 3 43 24 11 24 61 45 90 39 12 -3 15 -10 11 -25z m271 -26 c-3 -10
0 -22 6 -25 17 -11 0 -36 -24 -36 -31 0 -43 20 -22 35 10 7 17 25 17 40 0 22
3 25 14 16 8 -7 12 -20 9 -30z m2560 -89 c9 -70 10 -73 43 -87 19 -8 34 -20
34 -27 0 -27 75 -96 117 -108 36 -11 47 -10 76 4 49 23 77 21 77 -5 0 -12 7
-27 17 -34 14 -11 14 -16 2 -44 -8 -18 -24 -34 -37 -38 -13 -3 -21 -8 -18 -11
3 -3 1 -11 -5 -19 -7 -8 -9 -31 -6 -58 4 -24 3 -47 -2 -49 -12 -8 -34 21 -26
34 3 5 2 10 -3 10 -5 0 -12 -9 -15 -20 -3 -12 -14 -20 -25 -20 -12 0 -24 -4
-27 -10 -3 -5 -2 -10 3 -10 14 0 23 -29 15 -43 -5 -7 -17 -12 -28 -12 -14 0
-20 -7 -22 -27 -1 -22 3 -28 17 -28 17 0 18 -3 8 -32 -6 -18 -19 -39 -29 -46
-10 -7 -19 -22 -21 -35 -2 -15 -13 -25 -33 -31 -31 -9 -55 -43 -55 -78 0 -10
-4 -18 -10 -18 -5 0 -10 -8 -10 -19 0 -17 -40 -53 -56 -50 -11 1 -26 -30 -19
-41 11 -18 -5 -32 -22 -19 -18 16 -33 -3 -26 -32 4 -12 0 -19 -10 -19 -8 0
-20 -7 -27 -15 -7 -9 -20 -15 -29 -13 -19 3 -81 -21 -99 -39 -10 -10 -10 -16
0 -33 7 -11 18 -20 25 -20 7 0 13 -4 13 -8 0 -16 -13 -21 -30 -12 -16 8 -18 4
-22 -35 -4 -52 14 -67 42 -35 20 23 60 27 60 7 0 -24 -37 -49 -60 -42 -13 4
-31 0 -46 -10 -13 -9 -29 -13 -35 -9 -6 3 -17 -3 -25 -15 -8 -12 -22 -21 -30
-21 -8 0 -21 -18 -30 -39 -15 -37 -18 -39 -55 -37 -32 3 -39 0 -39 -15 0 -19
25 -49 41 -49 5 0 9 -7 9 -15 0 -21 -18 -19 -32 5 -7 11 -23 20 -36 20 -12 0
-25 7 -28 15 -4 8 -12 15 -20 15 -8 0 -14 5 -14 11 0 6 6 9 13 6 20 -8 41 9
34 27 -8 20 -26 20 -63 1 -16 -8 -24 -15 -17 -15 17 0 3 -41 -18 -48 -17 -7
-17 -9 1 -44 17 -35 17 -48 -2 -48 -4 0 -8 11 -8 24 0 14 -4 27 -9 30 -11 7
-21 -17 -21 -49 0 -30 -29 -60 -43 -46 -7 7 -16 7 -29 0 -14 -8 -20 -6 -25 6
-4 12 -13 15 -32 10 -19 -4 -22 -3 -11 4 16 11 7 27 -9 16 -6 -3 -11 -22 -11
-41 0 -19 -2 -34 -4 -34 -2 0 -11 -3 -20 -6 -12 -5 -16 0 -16 20 0 16 -6 26
-15 26 -8 0 -19 9 -25 20 -15 28 -11 217 6 316 8 43 16 111 18 149 4 65 4 67
-6 25 -5 -25 -14 -49 -19 -55 -5 -5 -9 -17 -9 -26 0 -10 -5 -21 -11 -25 -13
-7 -9 20 22 186 31 162 70 319 95 387 13 34 28 89 33 123 14 83 46 144 103
192 29 24 63 67 88 114 23 41 52 87 64 102 13 15 26 39 30 54 3 15 18 35 32
44 22 15 32 16 77 5 28 -6 59 -19 68 -27 16 -15 21 -13 57 24 l40 40 98 -1 99
-2 8 -73z m-2783 58 c0 -5 -4 -10 -10 -10 -5 0 -10 5 -10 10 0 6 5 10 10 10 6
0 10 -4 10 -10z m3410 -6 c0 -8 -5 -12 -10 -9 -6 4 -8 11 -5 16 9 14 15 11 15
-7z m-3312 -41 c-6 -7 -17 -13 -24 -13 -8 0 -14 -7 -14 -15 0 -8 -5 -15 -12
-15 -6 0 -3 -7 8 -15 24 -19 7 -32 -39 -31 -27 1 -32 5 -33 26 -1 14 -3 36 -5
49 -3 18 3 28 26 41 27 15 33 15 67 1 27 -12 34 -19 26 -28z m3252 22 c0 -8
-4 -15 -10 -15 -5 0 -10 7 -10 15 0 8 5 15 10 15 6 0 10 -7 10 -15z m-3185
-55 c4 -6 -7 -10 -27 -9 -27 0 -30 2 -13 9 27 12 33 12 40 0z m-2285 -35 c0
-8 -4 -15 -9 -15 -13 0 -22 16 -14 24 11 11 23 6 23 -9z m5358 -14 c-7 -12
-17 -21 -22 -21 -5 0 -18 -7 -28 -17 -21 -19 -37 -9 -22 14 10 17 75 55 82 49
2 -2 -3 -13 -10 -25z m-5118 -11 c0 -5 -5 -10 -11 -10 -5 0 -7 5 -4 10 3 6 8
10 11 10 2 0 4 -4 4 -10z m5209 -26 c-14 -18 -24 -11 -15 11 3 9 11 13 16 10
8 -5 7 -11 -1 -21z m-3476 1 c7 -16 -8 -29 -23 -20 -10 6 -2 35 10 35 4 0 10
-7 13 -15z m340 -17 c20 -20 34 -27 45 -22 36 15 68 15 81 0 11 -13 9 -16 -13
-22 -14 -3 -26 -13 -26 -22 0 -12 -5 -10 -25 8 -19 18 -27 21 -39 11 -11 -9
-15 -9 -18 0 -3 9 -10 9 -28 -1 -23 -12 -23 -14 -5 -20 13 -5 15 -9 6 -14 -6
-4 -18 -2 -26 4 -8 6 -20 8 -26 4 -7 -4 -4 8 8 27 23 39 20 59 -8 59 -17 0
-18 -3 -8 -21 14 -28 -3 -44 -52 -52 -32 -5 -37 -2 -54 29 -27 51 -11 63 83
63 71 0 78 -2 105 -31z m-653 -33 c0 -8 -9 -15 -20 -15 -11 0 -20 7 -20 15 0
8 9 15 20 15 11 0 20 -7 20 -15z m3610 4 c0 -6 7 -9 15 -5 9 3 15 0 15 -9 0
-19 -17 -19 -36 -1 -16 17 -18 26 -4 26 6 0 10 -5 10 -11z m67 -104 c9 -25 -4
-29 -17 -6 -7 15 -7 21 0 21 6 0 13 -7 17 -15z m-5445 -25 c-6 -55 -13 -70
-32 -70 -16 0 -18 5 -14 38 8 56 12 64 31 60 13 -2 17 -11 15 -28z m105 -42
c-3 -7 -5 -2 -5 12 0 14 2 19 5 13 2 -7 2 -19 0 -25z m-81 -25 c-11 -11 -19 6
-11 24 8 17 8 17 12 0 3 -10 2 -21 -1 -24z m5399 -11 c-8 -8 -25 10 -19 20 4
6 9 5 15 -3 4 -7 6 -15 4 -17z m-5435 -190 c0 -13 -12 -22 -22 -16 -10 6 -1
24 13 24 5 0 9 -4 9 -8z m440 -86 c0 -2 3 -11 6 -20 7 -17 -20 -21 -63 -10
-40 11 -28 34 17 34 22 0 40 -2 40 -4z m-290 -86 c0 -5 -7 -10 -15 -10 -8 0
-15 5 -15 10 0 6 7 10 15 10 8 0 15 -4 15 -10z m360 2 c0 -13 -12 -22 -22 -16
-10 6 -1 24 13 24 5 0 9 -4 9 -8z m90 -18 c0 -9 -5 -14 -12 -12 -18 6 -21 28
-4 28 9 0 16 -7 16 -16z m-340 -4 c0 -5 -4 -10 -10 -10 -5 0 -10 5 -10 10 0 6
5 10 10 10 6 0 10 -4 10 -10z m-22 -66 c5 3 16 -4 25 -14 16 -19 15 -21 -9
-37 -25 -16 -27 -16 -40 2 -8 10 -14 30 -14 43 0 20 2 22 15 12 8 -6 18 -9 23
-6z m202 -9 c0 -8 8 -15 18 -16 12 0 10 -3 -7 -10 -28 -11 -47 1 -38 25 8 20
27 21 27 1z m4430 -303 c0 -13 -12 -22 -22 -16 -10 6 -1 24 13 24 5 0 9 -4 9
-8z m-769 -115 c-13 -13 -15 1 -4 30 7 17 8 17 11 -1 2 -10 -1 -23 -7 -29z
m346 -325 c-16 -15 -47 -11 -47 7 0 10 39 20 53 13 5 -2 2 -11 -6 -20z m-57
-58 c0 -31 -2 -35 -15 -24 -18 15 -19 32 -3 48 17 17 18 16 18 -24z m-234 2
c6 -16 -33 -76 -50 -76 -5 0 -17 -6 -25 -14 -14 -13 -16 -10 -12 30 2 34 7 45
20 43 27 -2 41 1 40 9 -4 25 18 32 27 8z m-4146 -186 c0 -5 -4 -10 -10 -10 -5
0 -10 5 -10 10 0 6 5 10 10 10 6 0 10 -4 10 -10z m4082 -72 c-9 -9 -12 -7 -12
12 0 19 3 21 12 12 9 -9 9 -15 0 -24z m-4070 -130 c-9 -9 -12 -7 -12 12 0 19
3 21 12 12 9 -9 9 -15 0 -24z m3860 -3 c16 -1 19 -15 4 -21 -10 -4 -25 1 -36
11 -27 24 -25 39 3 23 12 -7 25 -12 29 -13z m225 -33 c8 -19 12 -36 9 -39 -12
-12 -46 31 -46 57 0 29 12 49 18 28 2 -7 11 -28 19 -46z m-2142 -72 c0 -28
-29 -40 -38 -15 -9 22 3 46 22 43 10 -2 16 -13 16 -28z m1785 -39 c14 -28 2
-81 -20 -81 -10 0 -23 7 -30 15 -11 13 -10 22 3 50 19 39 32 44 47 16z m4320
-2 c0 -11 -4 -18 -10 -14 -5 3 -7 12 -3 20 7 21 13 19 13 -6z m-1707 -49 c3
-11 1 -18 -4 -14 -5 3 -9 12 -9 20 0 20 7 17 13 -6z m-2235 -1 c-2 -6 -8 -10
-13 -10 -5 0 -11 4 -13 10 -2 6 4 11 13 11 9 0 15 -5 13 -11z m-448 -39 c0 -5
-5 -10 -11 -10 -5 0 -7 5 -4 10 3 6 8 10 11 10 2 0 4 -4 4 -10z m0 -30 c0 -5
-12 -17 -26 -27 -23 -15 -24 -18 -9 -23 15 -5 12 -9 -14 -20 -17 -7 -34 -10
-38 -7 -10 11 7 39 27 44 11 3 20 14 20 24 0 12 7 19 20 19 11 0 20 -4 20 -10z
m-1780 -47 c-1 -20 -16 -31 -30 -22 -13 8 -13 10 0 19 18 12 30 13 30 3z"/>
<path d="M4820 6845 c0 -8 2 -15 4 -15 2 0 6 7 10 15 3 8 1 15 -4 15 -6 0 -10
-7 -10 -15z"/>
<path d="M4527 6639 c-21 -5 -50 -15 -65 -23 -15 -8 -47 -17 -72 -21 -53 -8
-69 -18 -98 -66 -12 -20 -41 -49 -64 -64 -24 -15 -59 -39 -78 -54 l-35 -26 30
-6 c17 -3 57 -4 91 -1 72 6 86 -7 50 -43 l-26 -26 38 8 c67 14 116 10 120 -9
2 -12 -5 -19 -25 -24 -86 -19 -128 -40 -194 -96 -67 -58 -69 -59 -78 -36 -6
17 -4 30 10 49 18 26 67 71 105 97 18 13 18 13 -1 6 -52 -17 -53 -17 -48 10 6
32 -8 33 -42 4 -17 -15 -23 -28 -19 -43 4 -16 -2 -29 -23 -46 -17 -14 -37 -50
-51 -89 -35 -97 -37 -110 -18 -110 23 0 57 19 76 43 9 10 30 21 47 23 22 2 48
20 86 58 38 38 65 57 90 61 61 12 77 -18 32 -60 -16 -14 -22 -26 -15 -30 6 -4
10 -12 9 -18 -3 -28 3 -38 41 -66 34 -24 46 -28 90 -23 38 3 50 1 50 -9 0 -8
-10 -19 -22 -24 -14 -6 -22 -17 -20 -28 2 -10 -7 -30 -18 -45 l-22 -27 35 -3
c19 -2 52 4 72 13 24 9 42 12 49 6 12 -10 63 -3 72 10 3 5 13 9 22 9 9 0 38
23 64 51 42 46 48 57 48 96 0 30 7 55 21 74 27 38 21 76 -26 154 -35 57 -35
58 -15 72 26 18 26 55 0 71 -14 8 -20 23 -19 49 0 65 -3 77 -27 110 -35 46
-132 64 -227 42z m243 -612 c0 -16 -48 -63 -56 -55 -3 4 4 16 15 27 12 12 21
26 21 31 0 6 5 10 10 10 6 0 10 -6 10 -13z"/>
<path d="M4847 6528 c-12 -29 -12 -34 2 -39 23 -9 41 9 41 42 0 40 -26 38 -43
-3z"/>
<path d="M3690 5295 c0 -8 2 -15 4 -15 2 0 6 7 10 15 3 8 1 15 -4 15 -6 0 -10
-7 -10 -15z"/>
<path d="M3640 5287 c0 -21 12 -28 27 -16 19 16 16 29 -7 29 -11 0 -20 -6 -20
-13z"/>
<path d="M3650 5230 c0 -5 5 -10 11 -10 5 0 7 5 4 10 -3 6 -8 10 -11 10 -2 0
-4 -4 -4 -10z"/>
<path d="M4822 5188 c-29 -29 10 -98 56 -98 28 0 92 33 92 48 0 10 -102 62
-121 62 -8 0 -20 -5 -27 -12z"/>
<path d="M3720 5165 c0 -14 -5 -25 -12 -25 -9 0 -9 -3 -1 -11 13 -13 36 -3 28
12 -4 5 1 9 9 9 9 0 16 9 16 20 0 13 -7 20 -20 20 -15 0 -20 -7 -20 -25z"/>
<path d="M4671 4424 c-12 -9 -21 -26 -21 -40 0 -23 3 -24 43 -20 72 8 105 18
122 37 16 17 15 18 -17 23 -92 14 -107 14 -127 0z"/>
<path d="M2445 2660 c-11 -17 5 -32 21 -19 8 6 14 15 14 20 0 12 -27 11 -35
-1z"/>
<path d="M5440 2049 c0 -5 5 -7 10 -4 6 3 10 8 10 11 0 2 -4 4 -10 4 -5 0 -10
-5 -10 -11z"/>
<path d="M5390 1980 c0 -5 5 -10 10 -10 6 0 10 5 10 10 0 6 -4 10 -10 10 -5 0
-10 -4 -10 -10z"/>
<path d="M4436 943 c-11 -11 -6 -23 9 -23 8 0 15 4 15 9 0 13 -16 22 -24 14z"/>
<path d="M4430 860 c0 -37 2 -41 15 -30 8 7 15 20 15 30 0 10 -7 23 -15 30
-13 11 -15 7 -15 -30z"/>
<path d="M2502 8373 c2 -36 7 -49 21 -51 14 -3 17 4 17 47 0 45 -3 51 -21 51
-18 0 -20 -5 -17 -47z"/>
<path d="M2780 8250 c0 -5 -7 -10 -15 -10 -8 0 -15 -7 -15 -15 0 -21 12 -19
33 5 20 23 21 30 7 30 -5 0 -10 -4 -10 -10z"/>
<path d="M3060 5640 c0 -11 5 -20 10 -20 6 0 10 9 10 20 0 11 -4 20 -10 20 -5
0 -10 -9 -10 -20z"/>
<path d="M3077 5344 c-3 -4 -2 -15 4 -25 7 -14 6 -19 -2 -19 -7 0 -10 -3 -6
-6 3 -3 15 -3 26 1 27 8 30 55 3 55 -10 0 -22 -3 -25 -6z"/>
<path d="M2980 5124 c0 -8 5 -12 10 -9 6 3 10 10 10 16 0 5 -4 9 -10 9 -5 0
-10 -7 -10 -16z"/>
<path d="M3030 5118 c0 -12 1 -19 3 -17 1 2 9 12 16 22 12 14 11 17 -3 17 -10
0 -16 -8 -16 -22z"/>
<path d="M2944 4995 c-19 -14 -18 -14 4 -15 13 0 22 6 22 15 0 19 -1 19 -26 0z"/>
<path d="M3020 4990 c0 -5 5 -10 10 -10 6 0 10 5 10 10 0 6 -4 10 -10 10 -5 0
-10 -4 -10 -10z"/>
<path d="M2880 4965 c0 -9 6 -12 15 -9 8 4 15 10 15 15 0 5 -7 9 -15 9 -8 0
-15 -7 -15 -15z"/>
<path d="M2945 4961 c-3 -5 -1 -12 5 -16 5 -3 10 1 10 9 0 18 -6 21 -15 7z"/>
<path d="M2705 4949 c-7 -10 10 -28 28 -29 12 0 8 17 -7 29 -11 9 -16 9 -21 0z"/>
<path d="M2480 4590 c0 -5 15 -10 33 -9 27 0 29 2 12 9 -28 12 -45 12 -45 0z"/>
<path d="M2791 4284 c0 -11 3 -14 6 -6 3 7 2 16 -1 19 -3 4 -6 -2 -5 -13z"/>
<path d="M2780 4140 c0 -19 3 -21 12 -12 9 9 9 15 0 24 -9 9 -12 7 -12 -12z"/>
<path d="M2700 3992 c0 -14 11 -21 26 -15 8 3 11 9 8 14 -7 11 -34 12 -34 1z"/>
<path d="M1962 3922 c4 -37 28 -41 25 -4 -1 16 -8 29 -15 29 -8 0 -12 -10 -10
-25z"/>
<path d="M2680 3910 c0 -5 9 -10 20 -10 11 0 20 5 20 10 0 6 -9 10 -20 10 -11
0 -20 -4 -20 -10z"/>
<path d="M2540 3867 c-35 -11 -35 -11 -7 -15 19 -2 27 -9 27 -23 0 -16 -7 -19
-40 -19 -25 0 -40 -5 -40 -12 0 -20 -49 -39 -71 -28 -10 6 -27 10 -38 10 -11
0 -22 9 -26 20 -8 24 -18 25 -36 4 -10 -13 -10 -17 1 -24 12 -7 11 -12 -3 -28
-9 -10 -17 -26 -17 -34 0 -9 -6 -19 -12 -21 -7 -3 -3 -6 9 -6 47 -2 30 -31
-17 -31 -35 0 -31 -20 7 -36 21 -9 41 -21 45 -27 5 -8 9 -6 13 6 5 11 19 17
44 17 114 1 116 2 119 43 3 35 5 37 36 37 49 0 63 23 60 99 -1 35 -6 67 -11
71 -4 4 -24 2 -43 -3z m-95 -157 c4 -6 -6 -10 -22 -10 -22 0 -25 2 -13 10 19
12 27 12 35 0z m25 -40 c13 -9 13 -11 0 -20 -8 -5 -22 -10 -30 -10 -8 0 -22 5
-30 10 -13 9 -13 11 0 20 8 5 22 10 30 10 8 0 22 -5 30 -10z"/>
<path d="M3427 3850 c-15 -55 -11 -59 36 -36 l42 21 -32 3 c-20 2 -33 9 -35
20 -3 12 -6 10 -11 -8z"/>
<path d="M1967 3843 c-15 -14 -6 -23 24 -23 27 0 30 2 19 15 -13 16 -32 19
-43 8z"/>
<path d="M2060 3830 c-13 -8 -12 -10 3 -10 9 0 17 5 17 10 0 12 -1 12 -20 0z"/>
<path d="M3733 3828 c-6 -7 -13 -21 -16 -30 -5 -14 -1 -18 18 -18 21 0 25 5
25 30 0 32 -11 39 -27 18z"/>
<path d="M2140 3804 c0 -19 17 -26 38 -15 10 5 28 7 40 4 17 -4 22 -13 22 -40
0 -30 2 -34 15 -23 17 14 20 50 4 50 -5 0 -8 4 -4 9 9 15 -12 23 -66 26 -35 1
-49 -1 -49 -11z"/>
<path d="M3630 3809 c0 -5 5 -7 10 -4 6 3 10 8 10 11 0 2 -4 4 -10 4 -5 0 -10
-5 -10 -11z"/>
<path d="M2057 3791 c-23 -15 -25 -20 -12 -25 27 -10 32 -7 37 19 3 14 5 25 4
24 0 0 -14 -9 -29 -18z"/>
<path d="M3033 3782 c-7 -4 -9 -13 -4 -20 6 -10 13 -8 32 7 22 19 23 20 4 21
-11 0 -25 -4 -32 -8z"/>
<path d="M1948 3773 c6 -2 18 -2 25 0 6 3 1 5 -13 5 -14 0 -19 -2 -12 -5z"/>
<path d="M2144 3757 c-9 -24 4 -37 36 -37 53 0 51 32 -2 45 -20 5 -29 3 -34
-8z"/>
<path d="M2976 3744 c-17 -17 -18 -25 -7 -64 l7 -25 12 23 c8 14 9 22 2 22
-18 0 -11 18 10 23 23 6 28 37 6 37 -8 0 -22 -7 -30 -16z"/>
<path d="M1647 3713 c-11 -10 -8 -63 2 -63 5 0 12 9 16 19 4 13 12 17 25 14
14 -4 20 0 20 12 0 11 -5 15 -15 11 -8 -3 -15 -1 -15 4 0 11 -23 13 -33 3z"/>
<path d="M3065 3710 c-8 -13 4 -32 16 -25 12 8 12 35 0 35 -6 0 -13 -4 -16
-10z"/>
<path d="M3277 3706 c-4 -10 -1 -13 8 -9 8 3 12 9 9 14 -7 12 -11 11 -17 -5z"/>
<path d="M1438 3703 c-10 -2 -18 -11 -18 -20 0 -12 -3 -13 -14 -4 -10 9 -17 6
-30 -13 -22 -34 -20 -63 4 -69 14 -3 20 -14 20 -31 0 -32 -22 -34 -51 -5 -13
13 -27 18 -37 14 -9 -4 -37 -11 -61 -16 -52 -11 -55 -13 -47 -34 4 -12 13 -15
35 -10 17 3 32 2 36 -4 10 -17 66 -13 87 6 14 13 25 14 45 7 36 -12 26 -29
-17 -29 -61 0 -81 -27 -32 -46 15 -7 22 -13 15 -16 -7 -3 -13 -11 -13 -19 0
-10 12 -14 40 -14 29 0 40 4 40 15 0 8 -5 15 -11 15 -8 0 -8 5 1 15 11 13 8
15 -16 16 l-29 1 30 7 c17 4 38 2 48 -3 12 -8 22 -8 34 0 12 7 29 8 55 1 43
-11 68 2 68 34 0 11 7 19 18 19 51 1 65 60 13 60 -39 0 -46 10 -49 64 -1 28
-4 52 -6 54 -3 2 -14 -6 -25 -17 -12 -12 -28 -22 -36 -22 -8 -1 -20 -2 -25 -3
-6 -1 -16 10 -23 23 -13 26 -23 31 -49 24z m-1 -89 c-3 -3 -12 -4 -19 -1 -8 3
-5 6 6 6 11 1 17 -2 13 -5z m88 -64 c3 -5 -1 -10 -10 -10 -9 0 -13 5 -10 10 3
6 8 10 10 10 2 0 7 -4 10 -10z m25 -40 c-19 -13 -30 -13 -30 0 0 6 10 10 23
10 18 0 19 -2 7 -10z"/>
<path d="M2058 3703 c7 -3 16 -2 19 1 4 3 -2 6 -13 5 -11 0 -14 -3 -6 -6z"/>
<path d="M1322 3663 c-2 -33 -6 -43 -19 -43 -16 0 -16 -1 0 -17 16 -16 18 -16
34 0 10 10 12 17 6 17 -7 0 -14 19 -16 43 l-4 42 -1 -42z"/>
<path d="M2015 3614 c22 -16 47 -18 61 -5 5 5 18 11 29 13 11 2 -9 4 -45 5
-57 1 -62 -1 -45 -13z"/>
<path d="M1255 3610 c-3 -5 1 -10 9 -10 9 0 16 5 16 10 0 6 -4 10 -9 10 -6 0
-13 -4 -16 -10z"/>
<path d="M1840 3608 c0 -13 45 -39 53 -31 3 2 3 13 0 24 -6 21 -53 27 -53 7z"/>
<path d="M2217 3599 c-5 -17 -11 -20 -31 -15 -15 4 -26 2 -26 -3 0 -16 -71
-26 -80 -11 -6 9 -19 10 -46 4 -22 -4 -51 -7 -66 -5 -22 2 -28 -2 -28 -18 0
-29 16 -34 45 -15 14 9 25 12 25 5 0 -6 17 -9 45 -6 l46 5 -21 -22 c-20 -22
-23 -40 -5 -38 65 6 81 14 95 43 13 28 20 32 48 29 32 -2 33 -1 30 30 -4 37
-23 48 -31 17z"/>
<path d="M2840 3580 c0 -5 5 -10 10 -10 6 0 10 5 10 10 0 6 -4 10 -10 10 -5 0
-10 -4 -10 -10z"/>
<path d="M1760 3550 c0 -5 7 -10 16 -10 8 0 12 5 9 10 -3 6 -10 10 -16 10 -5
0 -9 -4 -9 -10z"/>
<path d="M2304 3541 c3 -5 -1 -14 -9 -21 -17 -14 -11 -30 11 -30 9 0 14 11 14
30 0 17 -5 30 -11 30 -5 0 -8 -4 -5 -9z"/>
<path d="M1148 3533 c6 -2 18 -2 25 0 6 3 1 5 -13 5 -14 0 -19 -2 -12 -5z"/>
<path d="M2940 3510 c0 -5 7 -10 15 -10 8 0 15 5 15 10 0 6 -7 10 -15 10 -8 0
-15 -4 -15 -10z"/>
<path d="M1987 3473 c-3 -5 -1 -17 4 -28 7 -17 8 -17 8 8 1 27 -4 34 -12 20z"/>
<path d="M1510 3446 c0 -30 13 -46 36 -46 13 0 24 -4 24 -10 0 -5 7 -10 15
-10 26 0 19 -59 -7 -70 -17 -6 -19 -9 -6 -9 11 -1 15 -6 12 -16 -4 -8 1 -17
10 -21 18 -7 66 37 66 61 0 8 5 17 10 20 15 9 12 35 -4 35 -7 0 -21 12 -31 26
-14 21 -22 25 -46 20 -22 -4 -31 -1 -39 14 -12 23 -40 27 -40 6z"/>
<path d="M2305 3437 c-4 -10 -5 -21 -1 -24 10 -10 18 4 13 24 -4 17 -4 17 -12
0z"/>
<path d="M1920 3430 c0 -5 -13 -10 -29 -10 -44 0 -49 -20 -7 -21 20 -1 42 -2
49 -3 6 -1 13 9 15 22 2 15 -2 22 -12 22 -9 0 -16 -4 -16 -10z"/>
<path d="M2231 3424 c0 -11 3 -14 6 -6 3 7 2 16 -1 19 -3 4 -6 -2 -5 -13z"/>
<path d="M1279 3420 c-5 -33 -3 -120 2 -120 3 0 5 -10 5 -22 -1 -20 4 -23 32
-22 39 2 40 -9 7 -42 -28 -28 -31 -46 -12 -62 10 -9 19 -8 35 3 15 11 23 12
28 4 4 -8 9 -7 15 2 13 20 11 57 -3 61 -14 5 -3 51 18 72 8 9 12 21 9 27 -5 6
-18 -2 -35 -23 -36 -42 -54 -29 -49 36 3 31 0 47 -9 51 -8 3 -11 13 -7 25 5
16 2 20 -14 20 -12 0 -22 -4 -22 -10z"/>
<path d="M2007 3423 c-9 -8 -9 -43 -1 -43 8 0 33 32 34 43 0 9 -24 9 -33 0z"/>
<path d="M1025 3410 c-3 -5 3 -10 14 -10 12 0 21 5 21 10 0 6 -6 10 -14 10 -8
0 -18 -4 -21 -10z"/>
<path d="M1810 3410 c0 -5 7 -10 15 -10 8 0 15 5 15 10 0 6 -7 10 -15 10 -8 0
-15 -4 -15 -10z"/>
<path d="M1450 3395 c-10 -12 -9 -15 5 -15 17 0 17 -1 1 -18 -15 -18 -15 -20
4 -37 25 -23 31 -17 37 40 5 40 3 45 -14 45 -12 0 -26 -7 -33 -15z"/>
<path d="M2520 3390 c0 -5 5 -10 10 -10 6 0 10 5 10 10 0 6 -4 10 -10 10 -5 0
-10 -4 -10 -10z"/>
<path d="M2160 3370 c0 -5 15 -10 34 -10 19 0 38 5 41 10 4 6 -10 10 -34 10
-23 0 -41 -4 -41 -10z"/>
<path d="M2252 3368 c-16 -16 -15 -45 1 -51 9 -4 8 -8 -3 -16 -11 -8 -3 -11
34 -11 47 0 48 1 33 18 -20 22 -22 43 -5 60 9 9 5 12 -18 12 -16 0 -35 -5 -42
-12z"/>
<path d="M1680 3305 c0 -29 0 -29 35 -11 26 14 26 15 7 25 -32 17 -42 13 -42
-14z"/>
<path d="M2000 3260 c0 -5 7 -10 16 -10 8 0 12 5 9 10 -3 6 -10 10 -16 10 -5
0 -9 -4 -9 -10z"/>
<path d="M1760 3250 c0 -5 5 -10 10 -10 6 0 10 5 10 10 0 6 -4 10 -10 10 -5 0
-10 -4 -10 -10z"/>
<path d="M1820 3250 c0 -5 7 -10 16 -10 8 0 12 5 9 10 -3 6 -10 10 -16 10 -5
0 -9 -4 -9 -10z"/>
<path d="M1200 3210 c0 -5 5 -10 10 -10 6 0 10 5 10 10 0 6 -4 10 -10 10 -5 0
-10 -4 -10 -10z"/>
<path d="M3800 3183 l0 -38 20 33 c25 40 25 42 0 42 -16 0 -20 -7 -20 -37z"/>
<path d="M1720 3167 c0 -23 23 -37 58 -37 30 0 33 2 22 15 -7 8 -19 15 -26 15
-8 0 -14 5 -14 10 0 6 -9 10 -20 10 -11 0 -20 -6 -20 -13z"/>
<path d="M1140 3150 c0 -5 5 -10 11 -10 5 0 7 5 4 10 -3 6 -8 10 -11 10 -2 0
-4 -4 -4 -10z"/>
<path d="M1470 3100 c0 -5 9 -10 21 -10 11 0 17 5 14 10 -3 6 -13 10 -21 10
-8 0 -14 -4 -14 -10z"/>
<path d="M2300 3100 c0 -5 5 -10 10 -10 6 0 10 5 10 10 0 6 -4 10 -10 10 -5 0
-10 -4 -10 -10z"/>
<path d="M2341 3084 c0 -11 3 -14 6 -6 3 7 2 16 -1 19 -3 4 -6 -2 -5 -13z"/>
<path d="M1625 3070 c-3 -5 1 -10 9 -10 9 0 16 5 16 10 0 6 -4 10 -9 10 -6 0
-13 -4 -16 -10z"/>
<path d="M1085 3060 c-22 -4 -43 -6 -46 -4 -10 6 4 -61 15 -69 7 -5 6 -7 -4
-6 -29 3 -41 -1 -35 -11 3 -5 22 -10 41 -10 20 0 44 -5 56 -11 11 -6 22 -9 24
-6 10 9 -19 55 -37 60 -25 7 -24 27 0 34 11 3 22 11 25 19 3 8 4 13 3 13 -1
-1 -20 -5 -42 -9z"/>
<path d="M1880 2960 c0 -18 -35 -60 -51 -60 -4 0 -10 16 -13 35 -9 44 -22 45
-31 3 -4 -17 -18 -42 -30 -56 -15 -16 -23 -37 -23 -63 -1 -41 16 -53 25 -19 6
23 19 26 26 8 4 -10 7 -10 18 0 7 6 35 12 61 12 35 0 48 4 48 14 0 8 6 21 13
28 22 22 28 48 12 54 -9 4 -15 19 -15 35 0 22 -5 29 -20 29 -13 0 -20 -7 -20
-20z"/>
<path d="M1095 2930 c3 -5 10 -10 16 -10 5 0 9 5 9 10 0 6 -7 10 -16 10 -8 0
-12 -4 -9 -10z"/>
<path d="M2791 2924 c0 -11 3 -14 6 -6 3 7 2 16 -1 19 -3 4 -6 -2 -5 -13z"/>
<path d="M2080 2915 c0 -2 14 -19 30 -37 17 -18 30 -38 30 -45 0 -6 5 -15 10
-18 6 -4 10 11 10 38 0 44 -1 45 -40 55 -22 5 -40 8 -40 7z"/>
<path d="M1182 2901 c-11 -7 -10 -10 3 -15 19 -7 35 0 35 15 0 11 -20 12 -38
0z"/>
<path d="M2771 2881 c-9 -15 -7 -20 9 -24 16 -4 20 0 20 19 0 29 -15 31 -29 5z"/>
<path d="M1615 2847 c-12 -10 -14 -16 -7 -21 13 -8 52 10 52 24 0 14 -23 12
-45 -3z"/>
<path d="M1470 2775 c0 -8 7 -15 15 -15 8 0 15 7 15 15 0 8 -7 15 -15 15 -8 0
-15 -7 -15 -15z"/>
<path d="M2085 2773 c3 -8 5 -19 5 -24 0 -5 7 -9 16 -9 11 0 14 5 10 16 -3 9
-6 19 -6 23 0 4 -7 8 -15 8 -10 0 -14 -6 -10 -14z"/>
<path d="M1120 2776 c0 -9 30 -14 35 -6 4 6 -3 10 -14 10 -12 0 -21 -2 -21 -4z"/>
<path d="M2062 2748 c-5 -7 -13 -30 -17 -50 -11 -57 11 -47 23 9 12 52 10 60
-6 41z"/>
<path d="M1179 2723 c4 -16 13 -28 19 -27 37 3 42 5 42 15 0 6 -9 13 -20 16
-11 3 -20 9 -20 14 0 5 -6 9 -14 9 -11 0 -12 -7 -7 -27z"/>
<path d="M1248 2646 c-21 -16 -24 -46 -5 -46 11 0 37 39 37 55 0 9 -15 5 -32
-9z"/>
<path d="M873 2596 c-6 -8 -10 -16 -7 -19 10 -9 44 5 44 19 0 18 -21 17 -37 0z"/>
<path d="M0 2575 c0 -27 1 -28 24 -19 22 8 20 21 -4 34 -18 9 -20 8 -20 -15z"/>
<path d="M351 2534 c0 -11 3 -14 6 -6 3 7 2 16 -1 19 -3 4 -6 -2 -5 -13z"/>
<path d="M224 2518 c-4 -5 0 -15 7 -20 10 -7 7 -7 -8 -3 -25 7 -30 -4 -11 -23
17 -17 55 -15 62 3 3 8 16 16 28 16 21 1 21 2 3 6 -11 3 -24 8 -30 13 -20 15
-45 19 -51 8z"/>
<path d="M385 2447 c-34 -19 -43 -33 -38 -60 4 -23 10 -26 34 -23 16 1 36 11
44 22 14 18 15 18 35 -6 l20 -25 0 23 c0 13 6 22 16 22 8 0 12 5 9 10 -3 6
-15 10 -27 10 -11 0 -32 9 -47 19 -21 15 -31 17 -46 8z"/>
<path d="M565 2425 l-30 -25 30 0 c39 1 69 22 53 38 -16 16 -18 15 -53 -13z"/>
<path d="M1265 2439 c-4 -6 -13 -8 -21 -5 -7 3 -16 1 -19 -4 -4 -6 7 -10 24
-10 21 0 31 5 31 15 0 18 -6 19 -15 4z"/>
<path d="M305 2430 c-3 -5 -1 -10 4 -10 6 0 11 5 11 10 0 6 -2 10 -4 10 -3 0
-8 -4 -11 -10z"/>
<path d="M693 2413 c9 -2 25 -2 35 0 9 3 1 5 -18 5 -19 0 -27 -2 -17 -5z"/>
<path d="M880 2410 c0 -5 7 -7 15 -4 8 4 15 8 15 10 0 2 -7 4 -15 4 -8 0 -15
-4 -15 -10z"/>
<path d="M568 2343 c7 -3 16 -2 19 1 4 3 -2 6 -13 5 -11 0 -14 -3 -6 -6z"/>
<path d="M669 2324 c-9 -11 -22 -14 -46 -9 -29 5 -33 3 -33 -16 0 -17 4 -20
22 -16 12 4 29 0 38 -7 15 -13 80 -27 80 -17 0 2 -10 15 -21 28 -18 18 -20 25
-9 38 10 12 10 15 -3 15 -8 0 -20 -7 -28 -16z"/>
<path d="M725 2310 c3 -5 12 -10 20 -10 8 0 17 5 20 10 4 6 -5 10 -20 10 -15
0 -24 -4 -20 -10z"/>
<path d="M340 2235 c-7 -8 -9 -22 -6 -32 4 -9 1 -20 -6 -24 -9 -6 -8 -12 5
-27 9 -10 17 -26 17 -35 0 -12 9 -17 31 -17 22 0 30 4 26 13 -3 8 -1 20 4 28
7 11 12 12 29 1 18 -11 20 -10 20 9 0 32 -19 59 -40 59 -11 0 -20 6 -20 14 0
13 -20 26 -40 26 -4 0 -13 -7 -20 -15z"/>
<path d="M520 2200 c0 -28 2 -30 39 -30 22 0 43 5 46 10 4 7 -8 8 -35 4 -40
-7 -41 -6 -34 20 4 16 2 26 -5 26 -6 0 -11 -13 -11 -30z"/>
<path d="M620 2220 c0 -5 7 -10 15 -10 8 0 15 5 15 10 0 6 -7 10 -15 10 -8 0
-15 -4 -15 -10z"/>
<path d="M828 2173 c6 -2 18 -2 25 0 6 3 1 5 -13 5 -14 0 -19 -2 -12 -5z"/>
<path d="M292 2148 c6 -18 28 -21 28 -4 0 9 -7 16 -16 16 -9 0 -14 -5 -12 -12z"/>
<path d="M807 2133 c-14 -13 -6 -24 15 -21 27 4 36 28 11 28 -11 0 -23 -3 -26
-7z"/>
<path d="M668 2123 c7 -3 16 -2 19 1 4 3 -2 6 -13 5 -11 0 -14 -3 -6 -6z"/>
<path d="M450 2110 c0 -5 5 -10 10 -10 6 0 10 5 10 10 0 6 -4 10 -10 10 -5 0
-10 -4 -10 -10z"/>
<path d="M710 2065 c-18 -21 -7 -28 29 -20 28 6 44 25 22 25 -5 0 -16 2 -24 5
-7 3 -20 -1 -27 -10z"/>
<path d="M800 1995 c0 -16 16 -20 24 -6 3 5 -1 11 -9 15 -9 3 -15 0 -15 -9z"/>
<path d="M680 1940 c0 -5 -13 -10 -29 -10 -34 0 -49 -16 -31 -33 10 -9 14 -9
17 1 3 6 22 15 44 18 40 7 56 34 19 34 -11 0 -20 -4 -20 -10z"/>
<path d="M304 1886 c-4 -10 -2 -22 4 -28 8 -8 13 -7 18 6 4 10 2 22 -4 28 -8
8 -13 7 -18 -6z"/>
<path d="M392 1884 c-11 -12 -11 -17 1 -29 13 -13 17 -13 28 1 10 12 10 18 -2
29 -12 11 -16 11 -27 -1z"/>
<path d="M160 1876 c0 -8 7 -17 16 -20 23 -9 24 -4 2 17 -14 13 -18 14 -18 3z"/>
<path d="M260 1870 c0 -5 5 -10 10 -10 6 0 10 5 10 10 0 6 -4 10 -10 10 -5 0
-10 -4 -10 -10z"/>
<path d="M625 1860 c3 -5 8 -10 11 -10 2 0 4 5 4 10 0 6 -5 10 -11 10 -5 0 -7
-4 -4 -10z"/>
<path d="M700 1850 c0 -5 5 -10 10 -10 6 0 10 5 10 10 0 6 -4 10 -10 10 -5 0
-10 -4 -10 -10z"/>
<path d="M834 1808 l-28 -22 34 -7 c48 -10 60 -3 46 27 -14 29 -16 30 -52 2z"/>
<path d="M177 1796 c-3 -8 0 -17 8 -19 17 -7 25 1 18 19 -7 18 -19 18 -26 0z"/>
<path d="M635 1790 c-11 -18 4 -60 21 -60 11 0 14 8 12 32 -3 32 -21 48 -33
28z"/>
</g>
</svg>
